<svg xmlns="http://www.w3.org/2000/svg" version="1.1" xmlns:xlink="http://www.w3.org/1999/xlink" xmlns:svgjs="http://svgjs.dev/svgjs" width="1500" height="1500" viewBox="0 0 1500 1500"><rect width="1500" height="1500" fill="#000000"></rect><g transform="matrix(0.6666666666666666,0,0,0.6666666666666666,249.39436519522388,620.6138896872893)"><svg viewBox="0 0 396 103" data-background-color="#ffffff" preserveAspectRatio="xMidYMid meet" height="390" width="1500" xmlns="http://www.w3.org/2000/svg" xmlns:xlink="http://www.w3.org/1999/xlink"><g id="tight-bounds" transform="matrix(1,0,0,1,0.24008861730862918,-0.24312224032109953)"><svg viewBox="0 0 395.52 103.48620981069303" height="103.48620981069303" width="395.52"><g><svg viewBox="0 0 395.52 103.48620981069303" height="103.48620981069303" width="395.52"><g><svg viewBox="0 0 395.52 103.48620981069303" height="103.48620981069303" width="395.52"><g id="textblocktransform"><svg viewBox="0 0 395.52 103.48620981069303" height="103.48620981069303" width="395.52" id="textblock"><g><svg viewBox="0 0 395.52 103.48620981069303" height="103.48620981069303" width="395.52"><path d="M394.594 22.196C392.735 11.454 387.435 8.468 387.435 8.468 371.165-2.596 350.86-0.212 332.619 1.378 300.414 1.443 268.339 3.806 236.208 5.073 168.767 5.267 100.749 2.087 33.643 9.929 27.339 12.335-6.54 10.401 1.121 23.571 3.129 29.049 10.456 35.129 10.232 40.156 11.236 41.037 12.631 39.018 13.226 40.285 15.309 43.701 18.711 42.09 21.501 44.109 17.614 49.502 20.403 53.992 23.062 58.697 18.377 59.921 12.371 59.341 9.675 63.401 9.396 66.345 7.89 65.786 6.235 65.657 5.026 65.571 2.59 65.894 2.999 66.817 4.394 69.975-1.594 71.802 2.162 74.895-0.422 78.247 3.948 81.147 3.353 84.778 3.278 85.508 3.687 86.131 4.338 86.303 7.22 87.227 3.018 89.031 3.464 90.987 33.029 104.349 65.104 95.111 95.394 101.256 103.259 96.959 97.346 102.781 100.489 101.879 102.943 100.826 104.728 105.187 107.499 102.717 107.927 102.008 107.276 100.332 108.8 100.654 109.6 100.826 110.307 100.783 110.418 99.795 110.586 98.312 109.117 99.236 108.726 98.463 112.947 94.553 111.906 103.855 115.866 103.469 115.68 102.33 114.528 100.697 116.889 100.912 119.232 99.279 119.306 97.926 121.389 101.599 121.463 102.394 121.835 102.953 122.43 103.34 128.938 99.344 135.409 104.758 142.233 102.953 146.417 100.976 150.433 104.027 154.672 103.275 156.16 102.674 157.666 101.599 159.098 103.404 176.632 103.791 195.319 102.179 211.943 103.469 256.364 101.062 303.836 104.457 350.674 101.277 361.719 100.053 373.192 98.312 383.958 96.916 383.958 96.916 392.679 93.092 392.679 75.905S394.538 60.866 394.817 47.181C395.096 33.496 396.398 32.938 394.538 22.196Z" opacity="1" fill="#ffffff" data-fill-palette-color="tertiary"></path><g transform="matrix(1,0,0,1,55.76832,26.230666666666668)"><svg width="283.98335999999995" viewBox="3.91 -38.38 278.9274561403509 50.120000000000005" height="51.02487647735968" data-palette-color="#ffffff"><path d="M22.22 0L9.94 0Q7.42 0 6.12-0.63 4.81-1.27 4.36-2.71 3.91-4.15 3.91-6.54L3.91-6.54 3.91-28.47Q3.91-30.91 4.36-32.34 4.81-33.76 6.12-34.39 7.42-35.01 9.94-35.01L9.94-35.01 21.41-35.01Q22-35.01 22.29-34.81L22.29-34.81Q22.92-34.38 23.61-33.76 24.29-33.15 25.05-32.3L25.05-32.3Q25.29-31.98 25.29-31.79L25.29-31.79Q25.29-31.57 25.05-31.3L25.05-31.3Q24.29-30.44 23.61-29.83 22.92-29.22 22.29-28.78L22.29-28.78Q21.95-28.59 21.41-28.59L21.41-28.59 14.58-28.59Q12.96-28.59 12.38-27.91 11.79-27.22 11.79-25.56L11.79-25.56 11.79-20.83 20.56-20.83Q21.14-20.83 21.44-20.63L21.44-20.63Q22.07-20.19 22.75-19.58 23.44-18.97 24.19-18.12L24.19-18.12Q24.44-17.8 24.44-17.6L24.44-17.6Q24.44-17.38 24.19-17.11L24.19-17.11Q23.44-16.26 22.75-15.65 22.07-15.04 21.44-14.6L21.44-14.6Q21.09-14.4 20.56-14.4L20.56-14.4 11.79-14.4 11.79-9.47Q11.79-7.84 12.38-7.13 12.96-6.42 14.58-6.42L14.58-6.42 22.22-6.42Q22.8-6.42 23.1-6.23L23.1-6.23Q23.73-5.79 24.41-5.18 25.1-4.57 25.85-3.71L25.85-3.71Q26.1-3.39 26.1-3.2L26.1-3.2Q26.1-2.98 25.85-2.71L25.85-2.71Q25.1-1.86 24.41-1.25 23.73-0.63 23.1-0.2L23.1-0.2Q22.75 0 22.22 0L22.22 0ZM37.08 0.61L37.08 0.61Q33.49 0.61 31.38-1.4 29.27-3.42 29.27-6.96L29.27-6.96Q29.27-8.79 29.94-10.36 30.61-11.94 32.29-13.15 33.96-14.36 36.97-15.09 39.99-15.82 44.68-15.94L44.68-15.94Q44.68-18.16 43.56-19.14 42.45-20.12 40.23-20.12L40.23-20.12Q38.23-20.12 36.96-19.43 35.69-18.75 35.37-18.51L35.37-18.51Q35.03-18.21 34.54-18.29L34.54-18.29Q33.88-18.38 33.14-18.63 32.39-18.87 31.54-19.19L31.54-19.19Q31.42-19.24 31.27-19.35 31.13-19.46 31.1-19.68L31.1-19.68Q31.1-19.8 31.13-19.98 31.15-20.17 31.25-20.65L31.25-20.65Q31.35-21.14 31.54-21.86 31.74-22.58 31.91-22.97L31.91-22.97Q32.13-23.39 32.64-23.75L32.64-23.75Q33.05-24.1 35.15-24.85 37.25-25.61 41.23-25.61L41.23-25.61Q52.19-25.61 52.19-14.94L52.19-14.94 52.19-1.12Q52.19-0.66 51.94-0.33 51.68 0 51.07 0L51.07 0 47.41 0Q47.02 0 46.71-0.11 46.41-0.22 46.14-0.54L46.14-0.54 44.63-2.49 44.46-2.49Q43.33-0.85 41.44-0.12 39.55 0.61 37.08 0.61ZM39.77-5.05L39.77-5.05Q42.01-5.05 43.16-6.2 44.31-7.35 44.63-8.57L44.63-8.57 44.63-11.28Q41.23-11.28 39.54-10.75 37.84-10.23 37.28-9.39 36.72-8.54 36.72-7.57L36.72-7.57Q36.72-6.15 37.6-5.6 38.47-5.05 39.77-5.05ZM65.74 0.61L65.74 0.61Q63.13 0.61 61.41 0.17 59.69-0.27 58.65-0.89 57.61-1.51 57.03-2.03L57.03-2.03Q56.59-2.44 56.93-2.95L56.93-2.95 59.42-6.64Q59.96-7.42 60.64-6.74L60.64-6.74Q61.35-6.05 62.56-5.41 63.76-4.76 65.57-4.76L65.57-4.76Q67.18-4.76 68.22-5.31 69.26-5.86 69.26-6.91L69.26-6.91Q69.26-7.64 68.79-8.11 68.33-8.57 67.16-9.06 65.99-9.55 63.89-10.3L63.89-10.3Q60.79-11.43 59.2-13.01 57.61-14.6 57.61-17.65L57.61-17.65Q57.61-20.46 59.16-22.22 60.71-23.97 63.14-24.79 65.57-25.61 68.21-25.61L68.21-25.61Q71.55-25.61 72.91-24.99 74.26-24.37 74.65-24.02L74.65-24.02Q75.02-23.71 75.17-23.29L75.17-23.29Q75.48-22.34 75.65-20.78L75.65-20.78Q75.75-19.87 75.19-19.58L75.19-19.58Q74.9-19.41 74.26-19.21 73.63-19.02 72.99-18.87 72.36-18.73 72.04-18.73L72.04-18.73Q71.94-18.73 71.83-18.79 71.72-18.85 71.45-19.09L71.45-19.09Q71.14-19.41 70.37-19.82 69.6-20.24 68.26-20.24L68.26-20.24Q66.94-20.24 66.05-19.81 65.16-19.38 65.16-18.31L65.16-18.31Q65.16-17.14 66.29-16.55 67.43-15.97 70.04-15.04L70.04-15.04Q72.09-14.33 73.62-13.49 75.14-12.65 75.97-11.29 76.8-9.94 76.8-7.64L76.8-7.64Q76.8-4.66 75.18-2.84 73.55-1.03 71.03-0.21 68.5 0.61 65.74 0.61ZM82.34 11.74L82.34 11.74Q81.44 11.74 80.97 11.56 80.51 11.38 80.19 11.11L80.19 11.11Q79.56 10.5 78.83 9.4L78.83 9.4Q78.65 9.13 78.46 8.78 78.26 8.42 78.26 8.18L78.26 8.18Q78.26 7.91 78.39 7.69 78.51 7.47 78.68 7.28L78.68 7.28Q79.07 6.76 79.63 6.21 80.19 5.66 80.58 5.35L80.58 5.35Q80.85 5.13 81.02 5.07 81.19 5 81.32 5L81.32 5Q81.44 5 81.68 5.05 81.93 5.1 82.41 5.1L82.41 5.1Q84.1 5.1 85.93 4 87.76 2.91 89.54-0.12L89.54-0.12Q87.69-1.83 85.89-4.41 84.1-6.98 82.66-10 81.22-13.01 80.35-16.02 79.48-19.02 79.48-21.56L79.48-21.56Q79.48-22.09 79.75-22.41L79.75-22.41Q80.88-23.8 82.95-25.32L82.95-25.32Q83.32-25.56 83.61-25.56L83.61-25.56Q83.93-25.56 84.27-25.32L84.27-25.32Q85.39-24.51 86.16-23.8 86.93-23.1 87.47-22.41L87.47-22.41Q87.74-22.09 87.74-21.51L87.74-21.51 87.74-21.61Q87.74-19.68 88.2-17.53 88.66-15.38 89.47-13.34 90.28-11.3 91.28-9.66 92.28-8.01 93.35-7.03L93.35-7.03 93.47-7.03Q93.96-7.96 94.56-9.7 95.16-11.45 95.7-13.59 96.23-15.72 96.57-17.83 96.92-19.95 96.92-21.58L96.92-21.58 96.92-21.51Q96.92-22.09 97.16-22.41L97.16-22.41Q97.72-23.1 98.48-23.8 99.24-24.51 100.31-25.32L100.31-25.32Q100.65-25.56 100.94-25.56L100.94-25.56Q101.29-25.56 101.58-25.32L101.58-25.32Q102.68-24.51 103.43-23.8 104.19-23.1 104.73-22.41L104.73-22.41Q104.97-22.09 104.97-21.53L104.97-21.53Q104.95-19.31 104.12-15.73 103.29-12.16 101.7-7.98 100.11-3.81 97.84 0.2L97.84 0.2Q94.45 6.23 90.52 8.98 86.59 11.74 82.34 11.74ZM104.97-21.58L104.97-21.58 104.97-21.51 104.97-21.53Q104.97-21.56 104.97-21.58ZM79.48-21.51L79.48-21.58 79.48-21.56 79.48-21.51ZM124.75-5.98L124.75-5.98Q126.53-5.98 127.54-6.35 128.55-6.71 129.12-7.25 129.68-7.79 130.09-8.33L130.09-8.33Q130.48-8.81 130.74-9.06 131-9.3 131.46-9.4L131.46-9.4Q131.85-9.52 132.72-9.56 133.58-9.59 134.45-9.59 135.32-9.59 135.66-9.55L135.66-9.55Q136.17-9.52 136.37-9.35L136.37-9.35Q136.56-9.18 136.61-8.62L136.61-8.62Q136.68-7.84 136.7-6.76 136.71-5.69 136.66-4.91L136.66-4.91Q136.64-4.66 136.57-4.49 136.51-4.32 136.32-3.98L136.32-3.98Q136.07-3.59 135.37-2.84 134.66-2.1 133.29-1.31 131.92-0.51 129.76 0.05 127.6 0.61 124.45 0.61L124.45 0.61Q121.08 0.61 118.15-0.26 115.22-1.12 113.01-3.17 110.81-5.22 109.57-8.72 108.34-12.21 108.34-17.43L108.34-17.43Q108.34-23.24 110.35-27.31 112.37-31.37 116.08-33.5 119.79-35.62 124.87-35.62L124.87-35.62Q128.43-35.62 130.59-34.89 132.75-34.16 133.88-33.17 135-32.18 135.46-31.45L135.46-31.45Q135.63-31.18 135.71-30.97 135.78-30.76 135.81-30.32L135.81-30.32Q135.88-29.74 135.84-28.61 135.81-27.49 135.66-26.64L135.66-26.64Q135.56-26.1 135.34-25.93L135.34-25.93Q135.24-25.83 135-25.76 134.76-25.68 134.27-25.68L134.27-25.68Q133.49-25.68 132.51-25.74 131.53-25.81 131.04-25.88L131.04-25.88Q130.46-25.98 130.19-26.16 129.92-26.34 129.65-26.73L129.65-26.73Q129.21-27.37 128.14-28.2 127.07-29.03 124.6-29.03L124.6-29.03Q121.13-29.03 118.89-26.35 116.64-23.68 116.64-17.7L116.64-17.7Q116.64-11.74 119-8.86 121.35-5.98 124.75-5.98ZM153.45 0.61L153.45 0.61Q147.3 0.61 143.71-2.66 140.12-5.93 140.12-12.4L140.12-12.4Q140.12-19.04 143.85-22.33 147.57-25.61 153.8-25.61L153.8-25.61Q159.8-25.61 163.42-22.38 167.03-19.14 167.03-12.84L167.03-12.84Q167.03-6.27 163.42-2.83 159.8 0.61 153.45 0.61ZM153.7-5.3L153.7-5.3Q156.38-5.3 157.75-6.97 159.12-8.64 159.12-12.7L159.12-12.7Q159.12-16.55 157.74-18.13 156.36-19.7 153.65-19.7L153.65-19.7Q151.04-19.7 149.54-18.01 148.03-16.31 148.03-12.5L148.03-12.5Q148.03-8.52 149.46-6.91 150.89-5.3 153.7-5.3ZM196.44-15.55L196.44-15.55 196.44-1.29Q196.44-0.56 196.14-0.28 195.83 0 195.1 0L195.1 0 190.07 0Q189.34 0 189.04-0.28 188.73-0.56 188.73-1.29L188.73-1.29 188.73-14.28Q188.73-16.94 187.61-18.16 186.48-19.38 184.56-19.38L184.56-19.38Q182.63-19.38 181.59-18.55 180.55-17.72 179.99-16.46L179.99-16.46 179.99-1.29Q179.99-0.56 179.68-0.28 179.38 0 178.65 0L178.65 0 173.62 0Q172.89 0 172.58-0.28 172.28-0.56 172.28-1.29L172.28-1.29 172.28-21.75Q172.28-22.34 172.52-22.66L172.52-22.66Q173.03-23.34 173.75-24.05 174.47-24.76 175.52-25.56L175.52-25.56Q175.84-25.81 176.13-25.81L176.13-25.81Q176.4-25.81 176.74-25.56L176.74-25.56Q177.77-24.76 178.5-24.02 179.23-23.29 179.79-22.51L179.79-22.51 179.92-22.51Q180.33-23.05 181.16-23.77 181.99-24.49 183.49-25.05 184.99-25.61 187.34-25.61L187.34-25.61Q189.63-25.61 191.71-24.68 193.78-23.75 195.11-21.56 196.44-19.36 196.44-15.55ZM212.92 0.61L212.92 0.61Q204.77 0.61 204.77-7.86L204.77-7.86 204.77-19.31 202.01-19.31Q201.28-19.31 201-19.62 200.71-19.92 200.71-20.65L200.71-20.65 200.71-23.66Q200.71-24.39 201-24.69 201.28-25 202.01-25L202.01-25 204.77-25 204.77-28.93Q204.77-29.52 205.01-29.83L205.01-29.83Q206.04-31.18 208.01-32.74L208.01-32.74Q208.36-32.98 208.63-32.98L208.63-32.98Q208.92-32.98 209.21-32.74L209.21-32.74Q210.26-31.93 210.98-31.23 211.7-30.52 212.21-29.83L212.21-29.83Q212.46-29.52 212.46-28.93L212.46-28.93 212.46-25 216.78-25Q217.51-25 217.79-24.69 218.07-24.39 218.07-23.66L218.07-23.66 218.07-20.65Q218.07-19.92 217.79-19.62 217.51-19.31 216.78-19.31L216.78-19.31 212.46-19.31 212.46-9.2Q212.46-5.3 215.29-5.3L215.29-5.3Q215.73-5.3 216.1-5.38 216.46-5.47 216.73-5.57L216.73-5.57Q217.24-5.76 217.45-5.71 217.66-5.66 217.83-5.18L217.83-5.18 219.25-1.39Q219.46-0.78 218.95-0.51L218.95-0.51Q218.59-0.34 217.18 0.13 215.78 0.61 212.92 0.61ZM231.03-22.17L231.03-20.36 231.13-20.36Q232.96-25.44 237.72-25.44L237.72-25.44Q238.33-25.44 238.73-25.38 239.12-25.32 239.26-25.27L239.26-25.27Q239.63-25.15 239.63-24.71L239.63-24.71 239.63-18.82Q239.63-18.07 238.75-18.41L238.75-18.41Q238.46-18.53 237.91-18.66 237.36-18.8 236.38-18.8L236.38-18.8Q233.87-18.8 232.45-16.96 231.03-15.11 231.03-11.94L231.03-11.94 231.03-1.29Q231.03-0.56 230.73-0.28 230.42 0 229.69 0L229.69 0 224.66 0Q223.93 0 223.63-0.28 223.32-0.56 223.32-1.29L223.32-1.29 223.32-21.75Q223.32-22.34 223.56-22.66L223.56-22.66Q224.08-23.34 224.8-24.05 225.52-24.76 226.57-25.56L226.57-25.56Q226.76-25.71 226.96-25.76 227.15-25.81 227.3-25.81L227.3-25.81Q227.64-25.81 227.98-25.56L227.98-25.56Q230.01-23.97 230.81-22.85L230.81-22.85Q231.03-22.56 231.03-22.17L231.03-22.17ZM255.25 0.61L255.25 0.61Q249.1 0.61 245.51-2.66 241.92-5.93 241.92-12.4L241.92-12.4Q241.92-19.04 245.64-22.33 249.37-25.61 255.59-25.61L255.59-25.61Q261.6-25.61 265.21-22.38 268.83-19.14 268.83-12.84L268.83-12.84Q268.83-6.27 265.21-2.83 261.6 0.61 255.25 0.61ZM255.5-5.3L255.5-5.3Q258.18-5.3 259.55-6.97 260.92-8.64 260.92-12.7L260.92-12.7Q260.92-16.55 259.54-18.13 258.16-19.7 255.45-19.7L255.45-19.7Q252.83-19.7 251.33-18.01 249.83-16.31 249.83-12.5L249.83-12.5Q249.83-8.52 251.26-6.91 252.69-5.3 255.5-5.3ZM282.37-1.83L277.27 0.51Q276.76 0.73 276.54 0.73L276.54 0.73Q276.32 0.73 276.07 0.56L276.07 0.56Q275.51 0.17 274.79-1.35 274.07-2.88 274.07-6.05L274.07-6.05 274.07-34.33Q274.07-34.91 274.32-35.23L274.32-35.23Q275.34-36.57 277.32-38.13L277.32-38.13Q277.66-38.38 277.93-38.38L277.93-38.38Q278.25-38.38 278.54-38.13L278.54-38.13Q279.59-37.33 280.31-36.62 281.03-35.91 281.54-35.23L281.54-35.23Q281.79-34.91 281.79-34.33L281.79-34.33 281.79-7.54Q281.79-5.93 282.06-4.8 282.32-3.66 282.69-2.98L282.69-2.98Q283.1-2.17 282.37-1.83L282.37-1.83Z" opacity="1" transform="matrix(1,0,0,1,0,0)" fill="#000000" class="wordmark-text-0" data-fill-palette-color="quaternary" id="text-0"></path></svg></g></svg></g></svg></g></svg></g><g></g></svg></g><defs></defs></svg><rect width="395.52" height="103.48620981069303" fill="none" stroke="none" visibility="hidden"></rect></g></svg></g></svg>